<svg width="138" height="46" viewBox="0 0 138 46" fill="none" xmlns="http://www.w3.org/2000/svg">
<g clip-path="url(#clip0_918_8322)">
<g clip-path="url(#clip1_918_8322)">
<path d="M131.119 0.337769H136V44.7119H131.119V0.337769ZM88.8747 30.368H91.1245C91.2132 29.6535 91.2642 28.9258 91.2642 28.1847C91.2642 24.5328 90.1527 21.1381 88.2512 18.3226C87.6256 17.3952 86.9111 16.5321 86.1235 15.74C86.1146 15.7311 86.1057 15.7201 86.0969 15.7112C86.088 15.7023 86.0769 15.6934 86.068 15.6846C85.2782 14.8969 84.4129 14.1847 83.4855 13.5568C80.6699 11.6554 77.2775 10.5438 73.6233 10.5438C72.7092 10.5438 71.8129 10.6126 70.9365 10.7479C68.893 11.0608 66.965 11.7242 65.2144 12.6738C64.9637 12.8091 64.7174 12.9511 64.4756 13.0975C61.3228 15.0123 58.8201 17.8877 57.3691 21.3179C56.4772 23.4278 55.9824 25.7486 55.9824 28.1847C55.9824 30.6209 56.4749 32.9394 57.3691 35.0516C58.8201 38.4818 61.3228 41.355 64.4756 43.2719C64.7174 43.4184 64.9637 43.5604 65.2144 43.6957C66.965 44.6453 68.893 45.3087 70.9365 45.6216C71.8129 45.7547 72.7092 45.8257 73.6233 45.8257C73.8296 45.8257 74.0338 45.8212 74.2379 45.8146C74.3111 45.8124 74.3865 45.8057 74.4598 45.8035C74.5884 45.7968 74.7194 45.7924 74.848 45.7835C74.9368 45.7769 75.0233 45.768 75.1121 45.7613C75.2252 45.7525 75.3384 45.7436 75.4515 45.7325C75.5469 45.7236 75.6401 45.7103 75.7355 45.6992C75.8398 45.6859 75.9463 45.6748 76.0506 45.6615C76.1504 45.6482 76.2503 45.6304 76.3501 45.6149C76.4477 45.5994 76.5453 45.5861 76.643 45.5683C76.7472 45.5506 76.8515 45.5284 76.9558 45.5084C77.0468 45.4907 77.1377 45.4751 77.2265 45.4574C77.3352 45.4352 77.4439 45.4086 77.5526 45.3842C77.637 45.3642 77.719 45.3464 77.8034 45.3265C77.9143 45.2998 78.0252 45.2688 78.1362 45.2399C78.216 45.22 78.2937 45.2 78.3736 45.1778C78.4889 45.1468 78.6021 45.1113 78.7152 45.0758C78.7885 45.0536 78.8617 45.0336 78.9327 45.0114C79.0503 44.9737 79.1679 44.9338 79.2855 44.8938C79.352 44.8716 79.4186 44.8494 79.4851 44.8273C79.6072 44.7851 79.7292 44.7385 79.849 44.6919C79.9089 44.6697 79.9688 44.6475 80.0287 44.6254C80.1552 44.5765 80.2794 44.5255 80.4037 44.4723C80.4569 44.4501 80.5102 44.4279 80.5634 44.4057C80.6921 44.3502 80.8186 44.2926 80.945 44.2349C80.9939 44.2127 81.0404 44.1927 81.0893 44.1705C81.2202 44.1106 81.3488 44.0463 81.4775 43.9819C81.5197 43.9597 81.5641 43.9398 81.6062 43.9176C81.7393 43.8488 81.8702 43.78 82.0034 43.709C82.0389 43.6891 82.0766 43.6713 82.1121 43.6513C82.2474 43.5759 82.3805 43.5005 82.5137 43.4228C82.5447 43.4051 82.5758 43.3873 82.6068 43.3696C82.7444 43.2875 82.8798 43.2032 83.0151 43.1189C83.0395 43.1033 83.0661 43.0878 83.0905 43.0723C83.2303 42.9835 83.3679 42.8925 83.5054 42.7994C83.5254 42.786 83.5454 42.7727 83.5653 42.7594C83.7073 42.664 83.8449 42.5642 83.9847 42.4643C84.0002 42.4532 84.0135 42.4444 84.029 42.4333C84.171 42.329 84.3108 42.2225 84.4506 42.1138C84.4595 42.1071 84.4706 42.0983 84.4794 42.0916C84.6214 41.9807 84.7634 41.8653 84.9032 41.7499L84.9187 41.7366C85.063 41.6168 85.2027 41.4948 85.3425 41.3705H85.3447C86.8268 40.0482 88.0871 38.484 89.0566 36.7356L84.4928 34.7033H84.4883C82.274 38.3864 78.2404 40.8513 73.6278 40.8513C67.3799 40.8513 62.1925 36.3252 61.1564 30.3724H88.8769L88.8747 30.368ZM61.2008 25.7397C62.3412 19.9178 67.4686 15.5226 73.6255 15.5226C79.7824 15.5226 84.9099 19.9156 86.0503 25.7397H61.203H61.2008ZM126.44 30.368H128.689C128.778 29.6535 128.829 28.9258 128.829 28.1847C128.829 24.5328 127.718 21.1381 125.816 18.3226C125.19 17.3952 124.476 16.5321 123.688 15.74C123.68 15.7311 123.671 15.7201 123.662 15.7112C123.653 15.7023 123.642 15.6934 123.633 15.6846C122.843 14.8969 121.978 14.1847 121.05 13.5568C118.235 11.6554 114.842 10.5438 111.188 10.5438C110.274 10.5438 109.378 10.6126 108.501 10.7479C106.458 11.0608 104.53 11.7242 102.779 12.6738C102.529 12.8091 102.282 12.9511 102.04 13.0975C98.8877 15.0123 96.385 17.8877 94.934 21.3179C94.0421 23.4278 93.5473 25.7486 93.5473 28.1847C93.5473 30.6209 94.0398 32.9394 94.934 35.0516C96.385 38.4818 98.8877 41.355 102.04 43.2719C102.282 43.4184 102.529 43.5604 102.779 43.6957C104.53 44.6453 106.458 45.3087 108.501 45.6216C109.378 45.7547 110.274 45.8257 111.188 45.8257C111.395 45.8257 111.599 45.8212 111.803 45.8146C111.876 45.8124 111.951 45.8057 112.025 45.8035C112.153 45.7968 112.284 45.7924 112.413 45.7835C112.502 45.7769 112.588 45.768 112.677 45.7613C112.79 45.7525 112.903 45.7436 113.016 45.7325C113.112 45.7236 113.205 45.7103 113.3 45.6992C113.405 45.6859 113.511 45.6748 113.615 45.6615C113.715 45.6482 113.815 45.6304 113.915 45.6149C114.013 45.5994 114.11 45.5861 114.208 45.5683C114.312 45.5506 114.416 45.5284 114.521 45.5084C114.612 45.4907 114.703 45.4751 114.791 45.4574C114.9 45.4352 115.009 45.4086 115.118 45.3842C115.202 45.3642 115.284 45.3464 115.368 45.3265C115.479 45.2998 115.59 45.2688 115.701 45.2399C115.781 45.22 115.859 45.2 115.938 45.1778C116.054 45.1468 116.167 45.1113 116.28 45.0758C116.353 45.0536 116.427 45.0336 116.498 45.0114C116.615 44.9737 116.733 44.9338 116.85 44.8938C116.917 44.8716 116.983 44.8494 117.05 44.8273C117.172 44.7851 117.294 44.7385 117.414 44.6919C117.474 44.6697 117.534 44.6475 117.594 44.6254C117.72 44.5765 117.844 44.5255 117.969 44.4723C118.022 44.4501 118.075 44.4279 118.128 44.4057C118.257 44.3502 118.383 44.2926 118.51 44.2349C118.559 44.2127 118.605 44.1927 118.654 44.1705C118.785 44.1106 118.914 44.0463 119.042 43.9819C119.085 43.9597 119.129 43.9398 119.171 43.9176C119.304 43.8488 119.435 43.78 119.568 43.709C119.604 43.6891 119.641 43.6713 119.677 43.6513C119.812 43.5759 119.945 43.5005 120.079 43.4228C120.11 43.4051 120.141 43.3873 120.172 43.3696C120.309 43.2875 120.445 43.2032 120.58 43.1189C120.604 43.1033 120.631 43.0878 120.655 43.0723C120.795 42.9835 120.933 42.8925 121.07 42.7994C121.09 42.786 121.11 42.7727 121.13 42.7594C121.272 42.664 121.41 42.5642 121.55 42.4643C121.565 42.4532 121.578 42.4444 121.594 42.4333C121.736 42.329 121.876 42.2225 122.016 42.1138C122.024 42.1071 122.035 42.0983 122.044 42.0916C122.186 41.9807 122.328 41.8653 122.468 41.7499L122.484 41.7366C122.628 41.6168 122.768 41.4948 122.907 41.3705H122.91C124.392 40.0482 125.652 38.484 126.622 36.7356L122.058 34.7033H122.053C119.839 38.3864 115.805 40.8513 111.193 40.8513C104.945 40.8513 99.7574 36.3252 98.7213 30.3724H126.442L126.44 30.368ZM98.7657 25.7397C99.9061 19.9178 105.034 15.5226 111.19 15.5226C117.347 15.5226 122.475 19.9156 123.615 25.7397H98.7679H98.7657ZM53.3488 11.4335L43.0806 38.1845L32.8124 11.4335H25.4974L15.2292 38.1845L4.95659 11.4335H0L12.7753 44.7141H17.6764L29.1516 14.8193L40.6267 44.7141H45.5278L58.3032 11.4313H53.3466L53.3488 11.4335Z" fill="black"/>
</g>
</g>
<defs>
<clipPath id="clip0_918_8322">
<rect width="137.197" height="45.7168" fill="white"/>
</clipPath>
<clipPath id="clip1_918_8322">
<rect width="136" height="45.4857" fill="white" transform="translate(0 0.337769)"/>
</clipPath>
</defs>
</svg>
